<?xml version="1.0" standalone="no"?>
<!DOCTYPE svg PUBLIC "-//W3C//DTD SVG 20010904//EN"
 "http://www.w3.org/TR/2001/REC-SVG-20010904/DTD/svg10.dtd">
<svg version="1.0" xmlns="http://www.w3.org/2000/svg"
 width="640.000000pt" height="1280.000000pt" viewBox="0 0 640.000000 1280.000000"
 preserveAspectRatio="xMidYMid meet">
<metadata>
Created by potrace 1.15, written by Peter Selinger 2001-2017
</metadata>
<g transform="translate(0.000000,1280.000000) scale(0.100000,-0.100000)"
fill="#000000" stroke="none">
<path d="M2890 12794 c-688 -46 -1130 -134 -1453 -287 -246 -116 -417 -291
-417 -427 0 -25 13 -84 30 -130 54 -153 36 -231 -90 -394 -64 -83 -62 -50 -51
-1053 11 -884 20 -1712 41 -3578 6 -500 15 -1301 20 -1780 5 -478 14 -1300 20
-1825 20 -1750 28 -2375 34 -2397 13 -60 112 -197 204 -285 341 -325 856 -531
1532 -614 204 -25 667 -26 870 -1 771 95 1351 360 1641 749 31 42 64 96 73
120 13 37 17 164 26 873 6 457 15 1152 20 1545 5 393 14 1055 20 1470 12 887
26 1956 40 2980 5 404 14 1079 20 1500 6 421 15 1080 20 1465 12 807 15 765
-74 865 -75 84 -99 138 -104 232 -3 61 1 91 19 145 27 82 27 147 0 209 -23 50
-142 179 -209 226 -275 190 -715 310 -1377 374 -141 13 -735 26 -855 18z m712
-54 c841 -57 1486 -260 1622 -510 51 -94 34 -180 -56 -269 -78 -79 -81 -79
-134 -32 -228 200 -654 336 -1280 407 -191 21 -732 30 -949 15 -683 -48 -1237
-207 -1472 -424 l-42 -39 -29 20 c-44 32 -112 110 -128 147 -18 44 -18 106 0
150 8 19 36 58 63 86 213 228 783 392 1558 448 164 12 672 12 847 1z m-147
-430 c632 -33 1156 -155 1442 -335 60 -38 133 -103 133 -118 0 -12 -168 -89
-285 -130 -781 -276 -2168 -290 -3021 -32 -163 50 -384 146 -384 168 0 24 127
115 235 169 94 47 264 110 281 104 7 -3 14 -1 16 5 3 8 262 79 288 79 4 0 -7
-15 -26 -34 -19 -19 -34 -42 -34 -51 0 -14 -3 -15 -15 -5 -8 7 -15 9 -15 5 0
-4 -6 -2 -14 4 -10 8 -16 9 -21 1 -3 -6 -10 -8 -15 -5 -9 6 -70 -14 -86 -29
-6 -6 -9 -19 -6 -30 6 -23 66 -86 82 -86 5 0 10 -4 10 -9 0 -9 114 -51 160
-58 14 -3 72 -6 130 -8 58 -2 115 -4 127 -4 17 -1 21 -5 16 -18 -5 -14 -3 -15
7 -6 15 13 34 7 192 -60 232 -100 421 -144 648 -154 228 -9 388 33 481 129 98
101 90 187 -28 283 -170 139 -454 214 -764 203 -71 -3 -132 -7 -135 -11 -3 -3
-3 -14 0 -24 5 -17 18 -18 164 -15 273 6 486 -43 648 -149 87 -56 134 -110
134 -153 l0 -33 -48 5 c-46 4 -51 2 -100 -42 -76 -67 -132 -81 -312 -80 -116
1 -171 6 -275 28 -178 36 -214 47 -415 126 -96 38 -215 80 -264 94 -49 15
-109 33 -133 41 -24 8 -59 15 -78 15 -27 0 -35 4 -35 19 0 48 103 101 197 101
l43 0 -20 -20 c-25 -25 -25 -57 -1 -93 34 -52 58 -61 169 -65 94 -4 102 -3
102 14 0 11 14 27 30 36 17 9 30 21 30 26 0 33 -112 81 -194 83 l-41 1 41 14
c33 12 41 19 37 34 -4 16 -16 20 -67 22 -49 2 -26 7 112 22 313 34 578 41 877
26z m1836 -319 c-12 -28 -21 -59 -21 -69 0 -28 -138 -131 -255 -189 -742 -372
-2410 -427 -3370 -112 -185 61 -368 149 -459 223 -57 46 -73 65 -88 108 -36
97 -45 148 -28 148 6 0 10 -9 10 -20 0 -12 7 -35 16 -53 92 -181 411 -343 867
-442 796 -172 1837 -160 2570 30 183 47 292 86 432 155 184 91 299 196 328
300 l12 45 3 -36 c2 -20 -6 -59 -17 -88z m-12 -265 c7 -16 9 -31 7 -34 -3 -2
-8 8 -12 22 -6 26 -6 26 -35 -18 -172 -273 -1047 -476 -2049 -476 -953 0
-1805 186 -2023 441 l-34 39 -12 -40 c-6 -21 -28 -60 -47 -86 -44 -57 -41 -87
16 -167 178 -248 772 -436 1610 -509 189 -16 832 -16 1010 1 705 65 1169 185
1461 377 114 76 198 189 199 269 0 23 3 27 10 15 16 -24 11 -92 -9 -137 -124
-272 -823 -501 -1721 -563 -187 -13 -714 -13 -895 0 -920 65 -1593 286 -1724
566 -31 66 -27 108 15 165 47 65 74 137 74 202 l1 52 24 -45 c127 -245 668
-436 1465 -517 245 -25 921 -25 1160 0 686 72 1166 215 1380 413 59 55 99 120
101 165 1 13 5 -5 9 -41 5 -36 13 -78 19 -94z m46 -92 c9 -15 12 -23 6 -20
-11 7 -35 46 -28 46 3 0 12 -12 22 -26z m125 -237 c0 -121 -108 -230 -333
-337 -317 -150 -770 -248 -1397 -302 -221 -19 -880 -16 -1110 6 -595 55 -1018
148 -1316 291 -231 109 -343 220 -344 337 0 67 10 73 36 18 111 -239 578 -440
1269 -545 515 -78 1239 -84 1780 -15 523 67 954 196 1192 358 108 73 203 190
203 249 0 15 2 16 10 3 5 -8 10 -37 10 -63z m-4358 -284 c191 -132 462 -229
858 -307 921 -182 2194 -135 2929 109 262 88 452 189 537 289 l34 40 0 -80 c0
-43 -4 -374 -10 -734 -5 -360 -14 -1008 -20 -1440 -6 -432 -15 -1111 -20
-1510 -5 -399 -14 -1067 -20 -1485 -6 -418 -15 -1086 -20 -1485 -5 -399 -14
-1080 -20 -1515 -6 -434 -15 -1080 -20 -1434 l-10 -644 -25 -43 c-223 -381
-813 -684 -1535 -788 -338 -49 -772 -49 -1110 0 -582 84 -1091 300 -1378 584
-77 77 -153 174 -184 235 -13 26 -17 182 -27 1110 -6 594 -16 1458 -21 1920
-5 462 -14 1250 -20 1750 -5 501 -15 1315 -20 1810 -6 495 -15 1289 -20 1765
-5 476 -12 1117 -16 1425 l-6 560 35 -41 c20 -22 69 -63 109 -91z"/>
<path d="M3623 12643 c15 -2 37 -2 50 0 12 2 0 4 -28 4 -27 0 -38 -2 -22 -4z"/>
<path d="M3755 12634 c11 -1 75 -8 143 -15 90 -9 122 -16 122 -25 0 -8 -8 -14
-17 -15 -30 -1 -2 -8 92 -24 76 -13 80 -14 25 -9 -36 3 -123 12 -195 20 -286
32 -918 29 -1280 -7 -110 -11 -347 -45 -410 -59 -36 -8 -34 -9 18 -5 l57 5 0
-29 c0 -27 -3 -29 -56 -36 -31 -4 -53 -9 -51 -12 3 -2 38 0 79 6 131 20 378
40 638 52 375 17 925 -8 1182 -56 78 -14 57 -18 -29 -6 -51 7 -77 -3 -30 -12
12 -2 4 -3 -18 -1 -22 2 -76 6 -120 8 l-80 5 65 -9 c36 -5 103 -14 150 -21
537 -71 950 -217 1060 -377 26 -38 37 -33 75 32 39 68 41 99 10 162 -93 190
-541 343 -1228 419 -114 12 -274 20 -202 9z m472 -100 c-3 -3 -12 -4 -19 -1
-8 3 -5 6 6 6 11 1 17 -2 13 -5z m-1870 -80 c-3 -3 -12 -4 -19 -1 -8 3 -5 6 6
6 11 1 17 -2 13 -5z m1870 -50 c-3 -3 -12 -4 -19 -1 -8 3 -5 6 6 6 11 1 17 -2
13 -5z"/>
<path d="M3603 12433 c9 -2 25 -2 35 0 9 3 1 5 -18 5 -19 0 -27 -2 -17 -5z"/>
<path d="M3738 12423 c18 -2 45 -2 60 0 15 2 0 4 -33 4 -33 0 -45 -2 -27 -4z"/>
<path d="M3978 12423 c6 -2 18 -2 25 0 6 3 1 5 -13 5 -14 0 -19 -2 -12 -5z"/>
<path d="M2158 12413 c7 -3 16 -2 19 1 4 3 -2 6 -13 5 -11 0 -14 -3 -6 -6z"/>
<path d="M2880 12199 c-90 -10 -170 -28 -170 -38 0 -4 30 -1 68 8 47 11 120
15 247 15 170 0 187 -2 300 -32 155 -41 264 -95 287 -141 15 -30 15 -38 2 -69
-18 -43 -18 -47 1 -32 23 19 29 73 11 108 -17 33 -91 83 -157 105 -220 75
-398 98 -589 76z"/>
<path d="M2815 12134 c-150 -47 -117 -144 71 -206 167 -56 473 -75 587 -37 48
16 87 52 87 80 0 54 -116 117 -285 155 -104 24 -394 29 -460 8z"/>
<path d="M1880 12050 c0 -5 5 -10 10 -10 6 0 10 5 10 10 0 6 -4 10 -10 10 -5
0 -10 -4 -10 -10z"/>
<path d="M2140 11900 c0 -5 5 -10 10 -10 6 0 10 5 10 10 0 6 -4 10 -10 10 -5
0 -10 -4 -10 -10z"/>
<path d="M2205 11890 c3 -5 8 -10 11 -10 2 0 4 5 4 10 0 6 -5 10 -11 10 -5 0
-7 -4 -4 -10z"/>
<path d="M2420 11890 c0 -5 5 -10 11 -10 5 0 7 5 4 10 -3 6 -8 10 -11 10 -2 0
-4 -4 -4 -10z"/>
<path d="M5359 11074 c-25 -30 -213 -134 -314 -173 -249 -96 -619 -178 -1003
-220 -943 -105 -1965 -33 -2617 184 -130 44 -323 134 -378 178 l-40 31 7 -400
c4 -219 11 -775 16 -1234 6 -459 15 -1199 20 -1645 5 -445 14 -1192 20 -1660
6 -467 15 -1190 20 -1605 5 -415 14 -1230 20 -1810 6 -580 15 -1158 18 -1285
4 -132 11 654 16 1850 4 1144 9 2081 11 2083 1 1 65 12 141 23 301 44 709 130
1017 213 70 19 127 33 127 31 0 -1 -22 -65 -50 -141 -27 -76 -50 -142 -50
-147 0 -4 287 136 637 312 350 177 637 321 638 321 1 0 -108 -255 -242 -567
-134 -313 -265 -618 -291 -680 -26 -62 -49 -112 -52 -112 -3 0 -36 45 -73 100
-59 87 -71 99 -90 93 -12 -3 -23 -7 -24 -8 -1 -1 76 -717 98 -899 9 -81 14
-96 24 -85 16 16 565 768 565 773 0 2 -46 -12 -102 -31 -56 -18 -103 -32 -105
-31 -2 3 634 1175 993 1831 14 26 40 56 56 65 218 119 597 364 779 502 l76 58
8 -1882 c4 -1035 11 -2343 14 -2907 6 -946 7 -994 14 -620 4 223 14 1015 22
1760 18 1629 31 2714 45 3700 5 404 15 1165 20 1690 6 525 15 1270 20 1655 5
385 7 701 6 703 -2 1 -9 -5 -17 -14z"/>
<path d="M5184 6848 l-19 -23 23 19 c12 11 22 21 22 23 0 8 -8 2 -26 -19z"/>
<path d="M5139 6813 c-13 -16 -12 -17 4 -4 16 13 21 21 13 21 -2 0 -10 -8 -17
-17z"/>
<path d="M5059 6753 c-13 -16 -12 -17 4 -4 16 13 21 21 13 21 -2 0 -10 -8 -17
-17z"/>
<path d="M4787 6570 c-76 -49 -145 -94 -153 -101 -20 -16 -21 -5870 -1 -5909
12 -23 19 -25 73 -24 l59 1 -75 -24 c-106 -34 -342 -88 -495 -112 -320 -50
-603 -71 -980 -71 -615 0 -1179 76 -1563 212 -58 20 -98 28 -130 26 l-47 -3
69 -51 c266 -198 703 -340 1221 -396 155 -17 682 -17 830 0 528 60 950 197
1218 394 73 55 86 75 32 52 -46 -19 -55 -17 -26 5 20 15 25 32 35 112 8 68 11
891 11 3011 0 1605 2 2918 5 2918 7 1 66 50 60 50 -3 0 -67 -41 -143 -90z m40
-5982 c-3 -8 -6 -5 -6 6 -1 11 2 17 5 13 3 -3 4 -12 1 -19z"/>
<path d="M3199 2869 c-13 -19 -27 -28 -36 -25 -50 20 -60 18 -73 -14 -12 -30
-16 -32 -51 -27 -37 5 -38 4 -44 -33 -6 -36 -9 -39 -43 -42 -37 -3 -37 -3 -34
-43 3 -38 1 -41 -31 -53 -34 -12 -35 -13 -24 -48 10 -33 9 -37 -18 -58 l-29
-23 22 -31 22 -30 -25 -30 -25 -30 29 -24 c19 -17 26 -29 21 -39 -23 -43 -21
-58 10 -74 27 -14 30 -20 28 -52 -3 -33 0 -37 29 -45 26 -7 33 -15 39 -43 5
-30 10 -34 42 -37 32 -3 38 -7 46 -36 9 -33 11 -34 51 -28 38 6 43 4 53 -19
13 -29 28 -31 61 -9 21 15 24 15 52 -12 l29 -28 27 26 c25 26 27 26 60 10 30
-14 36 -15 43 -2 26 45 34 50 66 41 30 -9 32 -7 47 30 14 35 19 39 51 39 33 0
35 2 38 37 3 32 7 38 37 45 31 9 33 11 27 44 -6 31 -4 36 23 52 35 19 36 26
16 62 -12 23 -11 27 13 52 l26 28 -24 25 -24 26 19 35 c16 31 17 37 5 44 -46
27 -51 35 -41 63 16 41 14 44 -25 57 -33 11 -35 15 -32 48 3 36 2 37 -34 40
-34 3 -37 6 -43 42 -6 37 -7 38 -44 33 -35 -5 -39 -3 -51 26 -14 34 -17 35
-56 21 -23 -9 -31 -7 -55 16 l-27 26 -31 -23 -31 -23 -29 22 -30 22 -22 -31z"/>
<path d="M5235 1420 c0 -305 1 -430 2 -277 2 152 2 402 0 555 -1 152 -2 27 -2
-278z"/>
<path d="M5181 776 c-19 -28 -27 -45 -18 -37 19 15 61 80 56 85 -2 2 -19 -20
-38 -48z"/>
<path d="M3958 594 c-4 -3 -1 -19 7 -35 8 -15 15 -47 15 -69 0 -58 24 -47 28
12 2 36 -2 51 -20 73 -13 14 -26 23 -30 19z"/>
<path d="M3918 584 c-3 -3 -2 -20 2 -37 4 -18 11 -44 14 -59 11 -51 29 -32 22
22 -10 73 -20 93 -38 74z"/>
<path d="M2520 570 c0 -5 5 -10 10 -10 16 0 12 -47 -6 -65 -20 -19 -17 -23 24
-31 21 -4 32 -3 32 5 0 6 -5 11 -10 11 -7 0 -8 18 -4 50 6 49 6 50 -20 50 -14
0 -26 -4 -26 -10z"/>
<path d="M2622 562 c-18 -12 -31 -64 -21 -90 11 -28 54 -30 69 -3 29 56 -4
121 -48 93z m32 -31 c4 -5 1 -22 -4 -37 -14 -35 -34 -18 -24 20 6 26 18 33 28
17z"/>
<path d="M2702 538 c-21 -21 -15 -86 9 -98 33 -18 61 13 57 64 -3 35 -7 41
-28 44 -14 2 -31 -3 -38 -10z m41 -43 c-3 -33 -10 -42 -24 -28 -13 13 0 65 15
60 6 -2 10 -17 9 -32z"/>
<path d="M2792 538 c-19 -19 -14 -49 8 -55 24 -6 25 -11 3 -35 -24 -27 -7 -35
21 -9 23 22 23 22 29 2 7 -27 44 -28 52 -1 8 25 -12 53 -32 46 -9 -4 -7 5 7
24 18 25 19 30 6 30 -9 0 -21 -9 -28 -19 -12 -19 -12 -19 -22 1 -14 27 -28 32
-44 16z m28 -28 c0 -5 -4 -10 -10 -10 -5 0 -10 5 -10 10 0 6 5 10 10 10 6 0
10 -4 10 -10z"/>
<path d="M3697 542 c-3 -4 -3 -19 0 -34 4 -21 10 -27 27 -25 13 1 21 -4 21
-13 0 -9 -9 -15 -22 -14 -13 0 -23 -5 -23 -13 0 -20 60 -12 74 10 14 22 -2 49
-35 58 l-24 6 27 8 c16 4 25 11 22 16 -6 11 -61 12 -67 1z"/>
<path d="M3867 544 c-4 -4 -23 -8 -43 -10 -20 -2 -38 -5 -39 -6 -2 -2 0 -21 4
-42 8 -52 31 -60 31 -12 0 42 17 49 22 9 5 -42 28 -41 28 1 0 46 16 47 24 1 5
-23 11 -32 20 -29 14 5 8 56 -8 83 -8 12 -29 15 -39 5z"/>
<path d="M3614 530 c-6 -6 -9 -22 -6 -36 3 -18 10 -24 26 -22 13 2 21 -2 21
-12 0 -9 -9 -15 -22 -14 -13 0 -23 -5 -23 -13 0 -20 60 -12 74 10 14 22 -2 49
-35 58 l-24 6 25 4 c14 2 24 9 23 14 -3 14 -46 18 -59 5z"/>
<path d="M2966 499 c-11 -55 -7 -89 9 -89 9 0 15 9 15 25 0 18 5 25 20 25 27
0 25 16 -2 25 -22 8 -22 8 5 12 40 6 35 33 -7 33 -30 0 -34 -4 -40 -31z"/>
<path d="M3470 504 c-13 -32 -12 -44 1 -83 6 -17 18 -31 26 -31 11 0 13 5 7
18 -5 9 -8 41 -8 70 1 56 -11 68 -26 26z"/>
<path d="M3517 524 c-14 -15 -6 -24 21 -24 23 -1 24 -2 10 -11 -24 -14 -23
-29 3 -29 12 0 19 -5 16 -12 -2 -7 -14 -12 -26 -11 -13 2 -21 -3 -21 -12 0
-19 53 -20 69 -2 7 9 8 29 3 58 -7 40 -10 44 -38 47 -16 2 -33 0 -37 -4z"/>
<path d="M3047 468 c-2 -29 -3 -56 0 -60 7 -13 73 -9 73 3 0 8 4 8 14 0 28
-23 69 -9 88 29 9 19 17 30 18 24 0 -7 11 -15 25 -18 15 -4 23 -11 19 -17 -3
-6 -17 -8 -30 -5 -17 5 -24 2 -24 -9 0 -18 60 -21 77 -4 8 8 13 8 17 0 10 -16
62 -13 76 4 17 20 3 52 -26 59 -14 4 -22 11 -19 15 3 5 15 7 26 4 16 -4 20 -2
17 8 -6 20 -52 23 -67 5 -18 -21 -7 -44 24 -56 15 -6 23 -15 20 -20 -8 -14
-47 -2 -58 17 -5 8 -21 19 -35 25 l-27 12 28 4 c34 4 31 26 -5 30 -17 2 -31
-4 -40 -17 -14 -19 -14 -19 -26 0 -26 42 -95 13 -95 -40 0 -26 -4 -31 -25 -31
-24 0 -24 2 -19 45 5 34 3 45 -7 45 -9 0 -15 -18 -19 -52z m143 12 c11 -21 -2
-60 -20 -60 -18 0 -31 39 -20 60 6 11 15 20 20 20 5 0 14 -9 20 -20z"/>
</g>
</svg>
